<svg width="45" height="46" viewBox="0 0 45 46" fill="none" xmlns="http://www.w3.org/2000/svg">
<circle cx="22.5" cy="23" r="22.5" fill="#2ECC71"/>
<path d="M33.1333 35L24.7333 26.6C24.0667 27.1333 23.3 27.5556 22.4333 27.8667C21.5667 28.1778 20.6444 28.3333 19.6667 28.3333C17.2444 28.3333 15.1947 27.4942 13.5173 25.816C11.84 24.1378 11.0009 22.088 11 19.6667C11 17.2444 11.8391 15.1947 13.5173 13.5173C15.1956 11.84 17.2453 11.0009 19.6667 11C22.0889 11 24.1387 11.8391 25.816 13.5173C27.4933 15.1956 28.3324 17.2453 28.3333 19.6667C28.3333 20.6444 28.1778 21.5667 27.8667 22.4333C27.5556 23.3 27.1333 24.0667 26.6 24.7333L35 33.1333L33.1333 35ZM19.6667 25.6667C21.3333 25.6667 22.7502 25.0831 23.9173 23.916C25.0844 22.7489 25.6676 21.3324 25.6667 19.6667C25.6667 18 25.0831 16.5831 23.916 15.416C22.7489 14.2489 21.3324 13.6658 19.6667 13.6667C18 13.6667 16.5831 14.2502 15.416 15.4173C14.2489 16.5844 13.6658 18.0009 13.6667 19.6667C13.6667 21.3333 14.2502 22.7502 15.4173 23.9173C16.5844 25.0844 18.0009 25.6676 19.6667 25.6667Z" fill="white"/>
</svg>
