<svg width="47" height="34" viewBox="0 0 47 34" fill="none" xmlns="http://www.w3.org/2000/svg">
<path d="M0.5625 7.37501H20.875L22.4375 10.5H2.125L0.5625 7.37501ZM2.64583 13.625H22.9583L24.5208 16.75H4.20833L2.64583 13.625ZM36.5 30.2917C38.2292 30.2917 39.625 28.8958 39.625 27.1667C39.625 25.4375 38.2292 24.0417 36.5 24.0417C34.7708 24.0417 33.375 25.4375 33.375 27.1667C33.375 28.8958 34.7708 30.2917 36.5 30.2917ZM39.625 11.5417H34.4167V16.75H43.7083L39.625 11.5417ZM15.6667 30.2917C17.3958 30.2917 18.7917 28.8958 18.7917 27.1667C18.7917 25.4375 17.3958 24.0417 15.6667 24.0417C13.9375 24.0417 12.5417 25.4375 12.5417 27.1667C12.5417 28.8958 13.9375 30.2917 15.6667 30.2917ZM40.6667 8.41668L46.9167 16.75V27.1667H42.75C42.75 30.625 39.9583 33.4167 36.5 33.4167C33.0417 33.4167 30.25 30.625 30.25 27.1667H21.9167C21.9167 30.625 19.1042 33.4167 15.6667 33.4167C12.2083 33.4167 9.41667 30.625 9.41667 27.1667H5.25V19.875H9.41667V23H11C12.1458 21.7292 13.8125 20.9167 15.6667 20.9167C17.5208 20.9167 19.1875 21.7292 20.3333 23H30.25V4.25001H5.25C5.25 1.93751 7.10417 0.0833435 9.41667 0.0833435H34.4167V8.41668H40.6667Z" fill="white"/>
</svg>
