<svg width="34" height="35" viewBox="0 0 34 35" fill="none" xmlns="http://www.w3.org/2000/svg">
<path d="M22.0292 18.9167C23.0917 18.9167 24.0267 18.3358 24.5084 17.4575L29.58 8.26334C29.6994 8.04861 29.7607 7.80643 29.7577 7.56075C29.7548 7.31508 29.6877 7.07444 29.5632 6.86263C29.4387 6.65082 29.2611 6.4752 29.0478 6.35314C28.8346 6.23107 28.5932 6.1668 28.3475 6.16668H7.38085L6.04919 3.33334H1.41669V6.16668H4.25002L9.35002 16.9192L7.43752 20.3758C6.40335 22.2742 7.76335 24.5833 9.91669 24.5833H26.9167V21.75H9.91669L11.475 18.9167H22.0292ZM8.72669 9.00001H25.9392L22.0292 16.0833H12.0842L8.72669 9.00001ZM9.91669 26C8.35835 26 7.09752 27.275 7.09752 28.8333C7.09752 30.3917 8.35835 31.6667 9.91669 31.6667C11.475 31.6667 12.75 30.3917 12.75 28.8333C12.75 27.275 11.475 26 9.91669 26ZM24.0834 26C22.525 26 21.2642 27.275 21.2642 28.8333C21.2642 30.3917 22.525 31.6667 24.0834 31.6667C25.6417 31.6667 26.9167 30.3917 26.9167 28.8333C26.9167 27.275 25.6417 26 24.0834 26Z" fill="#333333"/>
<circle cx="27.375" cy="7.375" r="6.375" fill="#2ECC71"/>
<path d="M24.0968 12V10.4C24.0968 10.0089 24.1452 9.67556 24.2419 9.4C24.3468 9.12444 24.5242 8.87556 24.7742 8.65333C25.0242 8.42222 25.3629 8.2 25.7903 7.98667L27.4476 7.14667C27.8508 6.94222 28.1694 6.68 28.4032 6.36C28.6371 6.03111 28.754 5.60889 28.754 5.09333C28.754 4.47111 28.5968 3.98667 28.2823 3.64C27.9677 3.29333 27.5242 3.12 26.9516 3.12C26.3871 3.12 25.9435 3.29333 25.621 3.64C25.2984 3.98667 25.1371 4.47111 25.1371 5.09333H24C24 4.53333 24.1048 4.01778 24.3145 3.54667C24.5323 3.07556 24.8589 2.70222 25.2944 2.42667C25.7298 2.14222 26.2823 2 26.9516 2C27.621 2 28.1694 2.14222 28.5968 2.42667C29.0323 2.70222 29.3548 3.06667 29.5645 3.52C29.7823 3.97333 29.8911 4.46667 29.8911 5V5.18667C29.8911 5.88889 29.7056 6.48 29.3347 6.96C28.9718 7.44 28.4798 7.83556 27.8589 8.14667L26.2016 8.98667C25.8306 9.17333 25.5806 9.36 25.4516 9.54667C25.3226 9.73333 25.2581 9.98222 25.2581 10.2933V11.52L24.9435 10.9067H30V12H24.0968Z" fill="white"/>
</svg>
