<svg width="24" height="25" viewBox="0 0 24 25" fill="none" xmlns="http://www.w3.org/2000/svg">
<path d="M19.68 11.3H4.32001C3.65761 11.3 3.60001 11.8364 3.60001 12.5C3.60001 13.1636 3.65761 13.7 4.32001 13.7H19.68C20.3424 13.7 20.4 13.1636 20.4 12.5C20.4 11.8364 20.3424 11.3 19.68 11.3ZM19.68 16.1H4.32001C3.65761 16.1 3.60001 16.6364 3.60001 17.3C3.60001 17.9636 3.65761 18.5 4.32001 18.5H19.68C20.3424 18.5 20.4 17.9636 20.4 17.3C20.4 16.6364 20.3424 16.1 19.68 16.1ZM4.32001 8.9H19.68C20.3424 8.9 20.4 8.3636 20.4 7.7C20.4 7.0364 20.3424 6.5 19.68 6.5H4.32001C3.65761 6.5 3.60001 7.0364 3.60001 7.7C3.60001 8.3636 3.65761 8.9 4.32001 8.9Z" fill="#2ECC71"/>
</svg>
